<mxfile host="app.diagrams.net" modified="2023-11-15T10:13:29.815Z" agent="Mozilla/5.0 (Macintosh; Intel Mac OS X 10_15_7) AppleWebKit/605.1.15 (KHTML, like Gecko) Version/17.1 Safari/605.1.15" version="22.1.1" etag="PA6Li8JJS6KWh-A2dr-J" type="github">
  <diagram name="Page-1" id="b6TYY0vV8Rlm57kkv3V5">
    <mxGraphModel>
      <root>
        <mxCell id="0" />
        <mxCell id="1" parent="0" />
      </root>
    </mxGraphModel>
  </diagram>
</mxfile>
